<svg id="btLogoIcon" aria-label="Logo SVG" fill="none" viewBox="0 0 78 97" xmlns="http://www.w3.org/2000/svg" xmlns:xlink="http://www.w3.org/1999/xlink"><path d="M32.058 18.013H15.706V.026H0V49.726c0 17.513 14.198 31.71 31.711 31.71 17.514 0 31.711-14.198 31.711-31.711 0-17.398-14.01-31.525-31.364-31.712Zm-.347 47.67c-8.813 0-15.958-7.145-15.958-15.958 0-8.814 7.145-15.958 15.958-15.958 8.814 0 15.958 7.144 15.958 15.958 0 8.813-7.144 15.958-15.958 15.958Z" fill="#001A43"></path><path d="m54.336 9.411-3.19 5.524c12.206 6.823 20.46 19.87 20.46 34.846 0 22.033-17.861 39.895-39.895 39.895-7.48 0-14.477-2.06-20.46-5.641l-3.188 5.523A46.004 46.004 0 0 0 31.71 96.07C57.235 96.07 78 75.305 78 49.781c0-17.311-9.554-32.43-23.664-40.37Z" fill="#00D8D8"></path></svg>
